<svg height="512" viewBox="0 0 256 256" width="512" xmlns="http://www.w3.org/2000/svg"><path d="m212.4 142.972h-177.06a2.5 2.5 0 0 1 0-5h177.06a2.5 2.5 0 0 1 0 5z" fill="#ed9abc"/><path d="m152.68 121.289a2.5 2.5 0 0 0 -3.143-1.619l-3.241 1.036a25.621 25.621 0 1 0 -14.26 11.85 2.5 2.5 0 0 0 -1.588-4.742 20.78 20.78 0 1 1 10.929-8.63l-1.425-4.455a2.5 2.5 0 0 0 -4.762 1.524l3.084 9.643a2.5 2.5 0 0 0 3.143 1.62l9.644-3.084a2.5 2.5 0 0 0 1.619-3.143z" fill="#ed9abc"/><g fill="#846f75"><path d="m212.4 120.45a2.5 2.5 0 0 0 -2.5 2.5v100.217h-58.76v-68.115a2.5 2.5 0 0 0 -2.5-2.5h-49.54a2.5 2.5 0 0 0 -2.5 2.5v68.115h-58.76v-100.217a2.5 2.5 0 0 0 -5 0v102.717a2.5 2.5 0 0 0 2.5 2.5h177.06a2.5 2.5 0 0 0 2.5-2.5v-102.717a2.5 2.5 0 0 0 -2.5-2.5zm-110.8 37.1h19.768v65.615h-19.768zm24.768 65.615v-65.613h19.772v65.615z"/><path d="m244.566 110.646-43.212-43.431a2.5 2.5 0 0 0 -1.773-.736h-65.809l-7.4-7.326v-6.646h25.254a2.5 2.5 0 0 0 2.5-2.5v-19.674a2.5 2.5 0 0 0 -2.5-2.5h-27.754a2.5 2.5 0 0 0 -2.5 2.5v28.827l-7.318 7.319h-57.635a2.5 2.5 0 0 0 -1.773.736l-43.212 43.431a2.5 2.5 0 0 0 1.772 4.264h58.451a2.5 2.5 0 0 0 1.768-.732l50.456-50.456 50.974 50.465a2.5 2.5 0 0 0 1.759.723h66.18a2.5 2.5 0 0 0 1.772-4.264zm-173.944-.736h-51.402l38.238-38.431h51.6zm78.5-62.4h-22.75v-14.677h22.754zm28.517 62.4-38.817-38.431h59.72l38.238 38.431z"/><path d="m49.437 175.381h36.1a2.5 2.5 0 0 0 2.5-2.5v-17.829a2.5 2.5 0 0 0 -2.5-2.5h-36.1a2.5 2.5 0 0 0 -2.5 2.5v17.829a2.5 2.5 0 0 0 2.5 2.5zm2.5-17.829h31.1v12.829h-31.1z"/><path d="m46.937 203.621a2.5 2.5 0 0 0 2.5 2.5h36.1a2.5 2.5 0 0 0 2.5-2.5v-17.829a2.5 2.5 0 0 0 -2.5-2.5h-36.1a2.5 2.5 0 0 0 -2.5 2.5zm5-15.329h31.1v12.829h-31.1z"/><path d="m162.21 175.381h36.1a2.5 2.5 0 0 0 2.5-2.5v-17.829a2.5 2.5 0 0 0 -2.5-2.5h-36.1a2.5 2.5 0 0 0 -2.5 2.5v17.829a2.5 2.5 0 0 0 2.5 2.5zm2.5-17.829h31.1v12.829h-31.1z"/><path d="m159.71 203.621a2.5 2.5 0 0 0 2.5 2.5h36.1a2.5 2.5 0 0 0 2.5-2.5v-17.829a2.5 2.5 0 0 0 -2.5-2.5h-36.1a2.5 2.5 0 0 0 -2.5 2.5zm5-15.329h31.1v12.829h-31.1z"/><path d="m121.009 117.346a2.5 2.5 0 0 0 1.789-.752l14.065-14.388a2.5 2.5 0 1 0 -3.576-3.5l-12.414 12.7-6.343-5.529a2.5 2.5 0 1 0 -3.285 3.769l8.122 7.081a2.493 2.493 0 0 0 1.642.619z"/></g></svg>